<svg height="16pt" preserveAspectRatio="xMidYMid meet" viewBox="0 0 533 554" width="16pt" xmlns="http://www.w3.org/2000/svg">
<g transform="matrix(.1 0 0 -.1 0 554)">
<path d="m3087 4902c-9-9-30-60-48-112-25-77-33-116-36-205-5-103-4-112 18-144 68-99 224-112 458-36 60 20 113 41 117 46 3 6 22 17 40 25 34 14 42 28 24 39-13 8-177-22-275-52-44-13-109-26-146-29-64-6-67-6-84 20-15 22-17 40-11 119 11 147 55 297 86 297 23 0 7 29-21 39-48 17-104 14-122-7z"/>
<path d="m1707 4732c-41-42-171-227-219-311-32-57-43-87-46-131-7-97 46-170 124-170 96 0 365 222 420 347 40 90 29 135-43 172-31 16-98 14-113-4-20-24-4-42 50-55 28-7 54-19 57-26 15-39-119-180-259-271-147-97-189-87-134 33 32 69 182 296 230 348 41 44 42 47 19 68-34 30-57 30-86 0z"/>
<path d="m3505 4259c-284-18-702-106-749-158-39-43 16-86 72-57 39 20 197 61 347 90 181 35 492 60 633 52 96-6 113-5 118 9 4 8 1 22-6 30-25 31-218 47-415 34z"/>
<path d="m1672 4068c-11-24-31-77-46-118-46-130-128-215-233-242-47-11-49-15-31-53 17-37 41-39 153-10 187 49 466 80 780 88 71 2 90 5 92 17 2 9-13 23-36 34-35 16-64 19-218 18-104 0-236-7-316-17-76-9-141-15-143-12-2 2 12 40 33 83 48 101 58 199 24 233-29 29-37 27-59-21z"/>
<path d="m3232 4030c-83-12-173-38-194-57-13-12-15-20-6-39 11-23 38-36 105-49 27-5 32-3 35 17s14 25 88 41c79 16 172 18 187 4 12-13-31-68-149-189-49-49-88-97-88-106s7-26 16-37c13-18 27-20 132-21 64 0 125-1 135-2 74-8-96-160-311-277-53-29-100-59-106-67-5-8-6-27-2-42 9-38 65-60 131-52 301 38 554 101 555 138 0 17-58 20-129 9-158-26-327-51-343-51-34 0-18 18 39 44 65 31 157 100 226 168 54 54 61 90 27 138-24 34-95 70-137 70-36 0-63 9-63 20 0 4 32 43 71 86 116 127 123 178 32 231-51 30-142 38-251 23z"/>
<path d="m3415 2414c-112-13-205-49-205-80 0-16 35-40 73-49 20-6 27-4 27 8 0 17 53 31 185 49 80 11 155 5 155-12 0-12-83-89-121-112-59-36-194-104-252-127-71-29-82-47-57-88 20-34 53-43 162-43 37 0 69-4 72-8 6-10-62-97-94-119-14-9-27-19-30-22s-31-28-63-54c-66-56-81-79-73-113 9-34 67-47 148-34 90 14 378 77 408 88 14 6 32 17 39 26 12 14 6 16-67 16-44 0-134-9-199-20-131-22-156-24-151-12 2 5 41 43 88 85 95 84 116 113 106 151-7 28-73 72-124 82-18 4-32 10-32 15 0 4 51 34 113 66 136 71 227 150 227 200 0 40-57 88-121 102-42 10-149 12-214 5z"/>
<path d="m2326 2258c-3-7-7-53-10-103-9-127-32-325-68-575-47-332-29-450 66-450 31 0 31 6 10 61-15 35-16 65-10 200 4 87 9 166 12 174 4 10 15 12 36 8 24-5 35 0 61 25 34 33 218 116 336 152 77 24 104 43 99 69-5 23-63 25-161 6-142-29-251-72-312-127-20-17-38-28-41-25s10 117 30 254c42 290 44 318 17 333-27 14-61 13-65-2z"/>
<path d="m1660 2159c-25-5-67-18-93-31-45-21-48-24-45-56 4-50 28-61 75-35 21 11 63 26 93 34 62 14 241 17 311 5 33-6 49-5 54 4 12 19-35 59-89 75-55 16-230 19-306 4z"/>
<path d="m1755 1900c-165-18-365-91-365-135 0-14 42-55 57-55 6 0 23 10 38 22 55 43 219 92 341 101 105 8 110-1 41-69-31-31-74-77-95-102-20-25-47-56-59-68s-35-46-53-75c-17-30-46-76-65-103-39-53-45-98-20-145 36-70 110-52 277 65 85 60 104 82 114 132 8 40-12 73-66 107-22 14-40 29-40 33s41 48 90 99c97 98 105 119 67 157-41 40-119 51-262 36zm133-387c19-8 15-18-28-57-37-33-167-106-190-106-16 0 11 47 75 128l56 72 37-16c20-9 43-18 50-21z"/>
<path d="m3570 1560c-202-25-519-99-600-140-42-21-58-53-40-75 17-20 45-19 106 4 204 78 645 146 899 139 129-3 130-3 133 20 6 41-49 54-248 58-96 1-209-1-250-6z"/>
<path d="m3524 1375c-17-40-55-203-75-315-19-103-19-434 0-477 14-35 49-53 61-33 4 7 10 112 13 234 6 236 20 334 72 485 37 111 31 141-28 141-23 0-31-7-43-35z"/>
</g>
</svg>