<?xml version="1.0"?>
<svg xmlns="http://www.w3.org/2000/svg" xmlns:xlink="http://www.w3.org/1999/xlink" xmlns:svgjs="http://svgjs.com/svgjs" version="1.1" width="512" height="512" x="0" y="0" viewBox="0 0 512 512.04267" style="enable-background:new 0 0 512 512" xml:space="preserve"><g><path xmlns="http://www.w3.org/2000/svg" d="m229.347656 458.667969c-49.984375 0-90.667968-40.683594-90.667968-90.667969v-303.59375l-103.058594 23.59375c-25.472656 6.699219-40.746094 32.960938-34.007813 58.667969l88.363281 329.917969c5.867188 21.335937 25.472657 35.457031 46.507813 35.457031 3.945313 0 7.957031-.492188 11.925781-1.535157l215.039063-51.839843zm0 0" fill="#5b5b5b" data-original="#000000" style=""/><path xmlns="http://www.w3.org/2000/svg" d="m277.347656 192c23.53125 0 42.667969-19.136719 42.667969-42.667969s-19.136719-42.664062-42.667969-42.664062-42.667968 19.132812-42.667968 42.664062 19.136718 42.667969 42.667968 42.667969zm0 0" fill="#5b5b5b" data-original="#000000" style=""/><path xmlns="http://www.w3.org/2000/svg" d="m512.015625 64c0-35.347656-28.652344-64-64-64h-213.335937c-35.347657 0-64 28.652344-64 64v298.667969c0 35.347656 28.652343 64 64 64h213.335937c35.347656 0 64-28.652344 64-64zm-277.335937-21.332031h213.335937c11.773437 0 21.332031 9.554687 21.332031 21.332031v137.367188l-16.214844-16.214844c-14.613281-14.613282-38.3125-14.613282-52.90625 0l-101.546874 101.546875-26.878907-26.878907c-14.613281-14.613281-38.3125-14.613281-52.90625 0l-5.546875 5.546876v-201.367188c0-11.777344 9.558594-21.332031 21.332032-21.332031zm0 0" fill="#5b5b5b" data-original="#000000" style=""/></g></svg>
