<?xml version="1.0"?>
<svg xmlns="http://www.w3.org/2000/svg" xmlns:xlink="http://www.w3.org/1999/xlink" xmlns:svgjs="http://svgjs.com/svgjs" version="1.1" width="512" height="512" x="0" y="0" viewBox="0 0 512 512" style="enable-background:new 0 0 512 512" xml:space="preserve" class=""><g transform="matrix(-1,-1.2246467991473532e-16,1.2246467991473532e-16,-1,512,512)">
<g xmlns="http://www.w3.org/2000/svg">
	<g>
		<path d="M264.157,0H256C114.842,0,0,114.842,0,256s114.842,256,256,256s256-114.842,256-256v-8.157L264.157,0z M445.972,237.513    c-56.308-1.762-98.861-16.712-126.817-44.667c-27.955-27.955-42.904-70.51-44.666-126.815L445.972,237.513z M256,472.615    c-119.442,0-216.615-97.174-216.615-216.615c0-112.413,86.079-205.085,195.78-215.604    c-2.527,79.869,16.307,140.464,56.141,180.299c37.481,37.481,93.314,56.384,166.316,56.382c4.586,0,9.261-0.096,13.984-0.247    C461.088,386.534,368.414,472.615,256,472.615z" fill="#646464" data-original="#000000" style=""/>
	</g>
</g>
<g xmlns="http://www.w3.org/2000/svg">
</g>
<g xmlns="http://www.w3.org/2000/svg">
</g>
<g xmlns="http://www.w3.org/2000/svg">
</g>
<g xmlns="http://www.w3.org/2000/svg">
</g>
<g xmlns="http://www.w3.org/2000/svg">
</g>
<g xmlns="http://www.w3.org/2000/svg">
</g>
<g xmlns="http://www.w3.org/2000/svg">
</g>
<g xmlns="http://www.w3.org/2000/svg">
</g>
<g xmlns="http://www.w3.org/2000/svg">
</g>
<g xmlns="http://www.w3.org/2000/svg">
</g>
<g xmlns="http://www.w3.org/2000/svg">
</g>
<g xmlns="http://www.w3.org/2000/svg">
</g>
<g xmlns="http://www.w3.org/2000/svg">
</g>
<g xmlns="http://www.w3.org/2000/svg">
</g>
<g xmlns="http://www.w3.org/2000/svg">
</g>
</g></svg>
